<svg xmlns="http://www.w3.org/2000/svg" xmlns:xlink="http://www.w3.org/1999/xlink" width="500" zoomAndPan="magnify" viewBox="0 0 375 374.999991" height="500" preserveAspectRatio="xMidYMid meet" version="1.0"><defs><clipPath id="4d39cacbe7"><path d="M 20.628906 20.628906 L 354.378906 20.628906 L 354.378906 354.378906 L 20.628906 354.378906 Z M 20.628906 20.628906 " clip-rule="nonzero"/></clipPath><clipPath id="9207c01353"><path d="M 48.78125 46.128906 L 326.28125 46.128906 L 326.28125 200 L 48.78125 200 Z M 48.78125 46.128906 " clip-rule="nonzero"/></clipPath><clipPath id="c3009c9076"><path d="M 66 175 L 309 175 L 309 328.878906 L 66 328.878906 Z M 66 175 " clip-rule="nonzero"/></clipPath><clipPath id="6242c8655c"><path d="M 245 196 L 247.628906 196 L 247.628906 202 L 245 202 Z M 245 196 " clip-rule="nonzero"/></clipPath><clipPath id="8682a335d3"><path d="M 244 176 L 247.628906 176 L 247.628906 180 L 244 180 Z M 244 176 " clip-rule="nonzero"/></clipPath><clipPath id="5676ee91d2"><path d="M 216 128.675781 L 247 128.675781 L 247 137 L 216 137 Z M 216 128.675781 " clip-rule="nonzero"/></clipPath><clipPath id="58a1ee6a10"><path d="M 175 128.675781 L 210 128.675781 L 210 239 L 175 239 Z M 175 128.675781 " clip-rule="nonzero"/></clipPath><clipPath id="d74cb13441"><path d="M 154 128.675781 L 196 128.675781 L 196 240 L 154 240 Z M 154 128.675781 " clip-rule="nonzero"/></clipPath><clipPath id="4a9e1bee36"><path d="M 184 229 L 209 229 L 209 246.425781 L 184 246.425781 Z M 184 229 " clip-rule="nonzero"/></clipPath></defs><g clip-path="url(#4d39cacbe7)"><path fill="#b964ec" d="M 354.367188 187.5 C 354.367188 190.230469 354.300781 192.960938 354.167969 195.6875 C 354.035156 198.414062 353.832031 201.136719 353.566406 203.855469 C 353.296875 206.574219 352.964844 209.285156 352.5625 211.984375 C 352.160156 214.6875 351.695312 217.375 351.164062 220.054688 C 350.628906 222.734375 350.03125 225.398438 349.367188 228.046875 C 348.703125 230.695312 347.976562 233.324219 347.183594 235.9375 C 346.390625 238.550781 345.535156 241.144531 344.613281 243.714844 C 343.695312 246.289062 342.710938 248.835938 341.667969 251.359375 C 340.621094 253.882812 339.515625 256.375 338.347656 258.84375 C 337.179688 261.3125 335.953125 263.753906 334.664062 266.160156 C 333.378906 268.570312 332.03125 270.945312 330.628906 273.289062 C 329.222656 275.628906 327.761719 277.9375 326.246094 280.207031 C 324.730469 282.476562 323.15625 284.710938 321.53125 286.902344 C 319.902344 289.097656 318.222656 291.25 316.492188 293.359375 C 314.757812 295.472656 312.976562 297.539062 311.140625 299.5625 C 309.308594 301.585938 307.425781 303.5625 305.492188 305.492188 C 303.5625 307.425781 301.585938 309.308594 299.5625 311.140625 C 297.539062 312.976562 295.472656 314.757812 293.359375 316.492188 C 291.25 318.222656 289.097656 319.902344 286.902344 321.53125 C 284.710938 323.15625 282.476562 324.730469 280.207031 326.246094 C 277.9375 327.761719 275.628906 329.222656 273.289062 330.628906 C 270.945312 332.03125 268.570312 333.378906 266.160156 334.664062 C 263.753906 335.953125 261.3125 337.179688 258.84375 338.347656 C 256.375 339.515625 253.882812 340.621094 251.359375 341.667969 C 248.835938 342.710938 246.289062 343.695312 243.714844 344.613281 C 241.144531 345.535156 238.550781 346.390625 235.9375 347.183594 C 233.324219 347.976562 230.695312 348.703125 228.046875 349.367188 C 225.398438 350.03125 222.734375 350.628906 220.054688 351.164062 C 217.375 351.695312 214.6875 352.160156 211.984375 352.5625 C 209.285156 352.964844 206.574219 353.296875 203.855469 353.566406 C 201.136719 353.832031 198.414062 354.035156 195.6875 354.167969 C 192.960938 354.300781 190.230469 354.367188 187.5 354.367188 C 184.769531 354.367188 182.039062 354.300781 179.3125 354.167969 C 176.585938 354.035156 173.863281 353.832031 171.144531 353.566406 C 168.425781 353.296875 165.714844 352.964844 163.015625 352.5625 C 160.3125 352.160156 157.625 351.695312 154.945312 351.164062 C 152.265625 350.628906 149.601562 350.03125 146.953125 349.367188 C 144.304688 348.703125 141.671875 347.976562 139.058594 347.183594 C 136.445312 346.390625 133.855469 345.535156 131.285156 344.613281 C 128.710938 343.695312 126.164062 342.710938 123.640625 341.667969 C 121.117188 340.621094 118.621094 339.515625 116.152344 338.347656 C 113.683594 337.179688 111.246094 335.953125 108.839844 334.664062 C 106.429688 333.378906 104.054688 332.03125 101.710938 330.628906 C 99.371094 329.222656 97.0625 327.761719 94.792969 326.246094 C 92.523438 324.730469 90.289062 323.15625 88.097656 321.53125 C 85.902344 319.902344 83.75 318.222656 81.640625 316.492188 C 79.527344 314.757812 77.460938 312.976562 75.4375 311.140625 C 73.414062 309.308594 71.4375 307.425781 69.503906 305.492188 C 67.574219 303.5625 65.691406 301.585938 63.859375 299.5625 C 62.023438 297.539062 60.242188 295.472656 58.507812 293.359375 C 56.777344 291.25 55.097656 289.097656 53.46875 286.902344 C 51.84375 284.710938 50.269531 282.476562 48.753906 280.207031 C 47.234375 277.9375 45.773438 275.628906 44.371094 273.289062 C 42.96875 270.945312 41.621094 268.570312 40.335938 266.160156 C 39.046875 263.753906 37.820312 261.3125 36.652344 258.84375 C 35.484375 256.375 34.378906 253.882812 33.332031 251.359375 C 32.289062 248.835938 31.304688 246.289062 30.386719 243.714844 C 29.464844 241.144531 28.609375 238.550781 27.816406 235.9375 C 27.023438 233.324219 26.296875 230.695312 25.632812 228.046875 C 24.96875 225.398438 24.371094 222.734375 23.835938 220.054688 C 23.304688 217.375 22.835938 214.6875 22.4375 211.984375 C 22.035156 209.285156 21.703125 206.574219 21.433594 203.855469 C 21.167969 201.136719 20.964844 198.414062 20.832031 195.6875 C 20.699219 192.960938 20.628906 190.230469 20.628906 187.5 C 20.628906 184.769531 20.699219 182.039062 20.832031 179.3125 C 20.964844 176.585938 21.167969 173.863281 21.433594 171.144531 C 21.703125 168.425781 22.035156 165.714844 22.4375 163.015625 C 22.835938 160.3125 23.304688 157.625 23.835938 154.945312 C 24.371094 152.265625 24.96875 149.601562 25.632812 146.953125 C 26.296875 144.304688 27.023438 141.671875 27.816406 139.058594 C 28.609375 136.445312 29.464844 133.855469 30.386719 131.285156 C 31.304688 128.710938 32.289062 126.164062 33.332031 123.640625 C 34.378906 121.117188 35.484375 118.621094 36.652344 116.152344 C 37.820312 113.683594 39.046875 111.246094 40.335938 108.839844 C 41.621094 106.429688 42.96875 104.054688 44.371094 101.710938 C 45.773438 99.371094 47.234375 97.0625 48.753906 94.792969 C 50.269531 92.523438 51.84375 90.289062 53.46875 88.097656 C 55.097656 85.902344 56.777344 83.75 58.507812 81.640625 C 60.242188 79.527344 62.023438 77.460938 63.859375 75.4375 C 65.691406 73.414062 67.574219 71.4375 69.503906 69.503906 C 71.4375 67.574219 73.414062 65.691406 75.4375 63.859375 C 77.460938 62.023438 79.527344 60.242188 81.640625 58.507812 C 83.75 56.777344 85.902344 55.097656 88.097656 53.46875 C 90.289062 51.84375 92.523438 50.269531 94.792969 48.753906 C 97.0625 47.234375 99.371094 45.773438 101.710938 44.371094 C 104.054688 42.96875 106.429688 41.621094 108.839844 40.335938 C 111.246094 39.046875 113.683594 37.820312 116.152344 36.652344 C 118.621094 35.484375 121.117188 34.378906 123.640625 33.332031 C 126.164062 32.289062 128.710938 31.304688 131.285156 30.386719 C 133.855469 29.464844 136.445312 28.609375 139.058594 27.816406 C 141.671875 27.023438 144.304688 26.296875 146.953125 25.632812 C 149.601562 24.96875 152.265625 24.371094 154.945312 23.835938 C 157.625 23.304688 160.3125 22.835938 163.015625 22.4375 C 165.714844 22.035156 168.425781 21.703125 171.144531 21.433594 C 173.863281 21.167969 176.585938 20.964844 179.3125 20.832031 C 182.039062 20.699219 184.769531 20.628906 187.5 20.628906 C 190.230469 20.628906 192.960938 20.699219 195.6875 20.832031 C 198.414062 20.964844 201.136719 21.167969 203.855469 21.433594 C 206.574219 21.703125 209.285156 22.035156 211.984375 22.4375 C 214.6875 22.835938 217.375 23.304688 220.054688 23.835938 C 222.734375 24.371094 225.398438 24.96875 228.046875 25.632812 C 230.695312 26.296875 233.324219 27.023438 235.9375 27.816406 C 238.550781 28.609375 241.144531 29.464844 243.714844 30.386719 C 246.289062 31.304688 248.835938 32.289062 251.359375 33.332031 C 253.882812 34.378906 256.375 35.484375 258.84375 36.652344 C 261.3125 37.820312 263.753906 39.046875 266.160156 40.335938 C 268.570312 41.621094 270.945312 42.96875 273.289062 44.371094 C 275.628906 45.773438 277.9375 47.234375 280.207031 48.753906 C 282.476562 50.269531 284.710938 51.84375 286.902344 53.46875 C 289.097656 55.097656 291.25 56.777344 293.359375 58.507812 C 295.472656 60.242188 297.539062 62.023438 299.5625 63.859375 C 301.585938 65.691406 303.5625 67.574219 305.492188 69.503906 C 307.425781 71.4375 309.308594 73.414062 311.140625 75.4375 C 312.976562 77.460938 314.757812 79.527344 316.492188 81.640625 C 318.222656 83.75 319.902344 85.902344 321.53125 88.097656 C 323.15625 90.289062 324.730469 92.523438 326.246094 94.792969 C 327.761719 97.0625 329.222656 99.371094 330.628906 101.710938 C 332.03125 104.054688 333.378906 106.429688 334.664062 108.839844 C 335.953125 111.246094 337.179688 113.683594 338.347656 116.152344 C 339.515625 118.621094 340.621094 121.117188 341.667969 123.640625 C 342.710938 126.164062 343.695312 128.710938 344.613281 131.285156 C 345.535156 133.855469 346.390625 136.445312 347.183594 139.058594 C 347.976562 141.671875 348.703125 144.304688 349.367188 146.953125 C 350.03125 149.601562 350.628906 152.265625 351.164062 154.945312 C 351.695312 157.625 352.164062 160.3125 352.5625 163.015625 C 352.964844 165.714844 353.296875 168.425781 353.566406 171.144531 C 353.832031 173.863281 354.035156 176.585938 354.167969 179.3125 C 354.300781 182.039062 354.367188 184.769531 354.367188 187.5 Z M 354.367188 187.5 " fill-opacity="1" fill-rule="nonzero"/></g><g clip-path="url(#9207c01353)"><path fill="#000000" d="M 78.664062 160.351562 C 74.902344 147.828125 72.011719 134.769531 70.0625 121.480469 C 79.246094 120.121094 89.859375 117.207031 101.671875 112.792969 C 114.53125 107.988281 129.019531 101.367188 144.742188 93.097656 C 163.480469 83.25 179.714844 73.265625 187.492188 68.347656 C 187.503906 68.355469 187.515625 68.363281 187.53125 68.375 C 187.542969 68.363281 187.558594 68.355469 187.570312 68.347656 C 195.347656 73.265625 211.582031 83.25 230.316406 93.097656 C 246.042969 101.367188 260.53125 107.988281 273.390625 112.792969 C 285.203125 117.207031 295.816406 120.121094 305 121.480469 C 303.046875 134.769531 300.160156 147.828125 296.398438 160.351562 C 292.347656 173.84375 287.179688 187.058594 281.035156 199.660156 C 316.285156 161.464844 326.28125 104.300781 326.28125 104.300781 L 315.789062 104.175781 C 299.15625 103.984375 272.8125 94.65625 239.613281 77.210938 C 213.902344 63.699219 193.21875 50.042969 193.011719 49.902344 L 187.570312 46.300781 L 187.53125 46.328125 L 187.492188 46.300781 L 182.050781 49.902344 C 181.84375 50.042969 161.160156 63.699219 135.449219 77.210938 C 102.246094 94.65625 75.90625 103.984375 59.273438 104.175781 L 48.78125 104.300781 C 48.78125 104.300781 58.777344 161.464844 94.027344 199.660156 C 87.882812 187.058594 82.71875 173.84375 78.664062 160.351562 " fill-opacity="1" fill-rule="nonzero"/></g><g clip-path="url(#c3009c9076)"><path fill="#000000" d="M 187.570312 306.234375 C 187.558594 306.222656 187.542969 306.214844 187.53125 306.207031 C 187.515625 306.214844 187.503906 306.222656 187.492188 306.234375 C 127.363281 267.710938 76.046875 190.390625 66.21875 175.585938 C 69.578125 185.160156 73.394531 194.542969 77.628906 203.640625 C 89.300781 228.695312 104.339844 252.042969 122.332031 273.039062 C 138.351562 291.734375 153.808594 305.078125 163.957031 312.984375 C 175.125 321.683594 182.515625 325.929688 182.824219 326.105469 L 187.492188 328.765625 L 187.53125 328.742188 L 187.570312 328.765625 L 192.238281 326.105469 C 192.546875 325.929688 199.9375 321.683594 211.105469 312.984375 C 221.253906 305.078125 236.710938 291.734375 252.730469 273.039062 C 270.71875 252.042969 285.761719 228.695312 297.433594 203.640625 C 301.667969 194.542969 305.484375 185.160156 308.84375 175.585938 C 299.015625 190.390625 247.699219 267.710938 187.570312 306.234375 " fill-opacity="1" fill-rule="nonzero"/></g><path fill="#000000" d="M 196.5 152.605469 C 194.40625 156.542969 192.824219 160.824219 192.179688 165.246094 C 195.902344 167.972656 200.105469 170.019531 204.761719 170.445312 C 211.816406 171.085938 218.605469 168.429688 225.632812 168.476562 C 227.859375 168.488281 229.976562 168.808594 232 169.378906 C 231.34375 165.933594 228.761719 162.628906 226.523438 160.199219 C 223.167969 156.550781 218.917969 153.46875 214.007812 152.40625 C 213.902344 152.5 213.792969 152.59375 213.679688 152.679688 C 211.398438 154.410156 208.070312 154 206.273438 151.769531 C 204.484375 149.542969 204.757812 146.210938 206.929688 144.332031 C 209.171875 142.394531 212.558594 142.699219 214.511719 144.878906 C 214.574219 144.945312 214.625 145.019531 214.667969 145.089844 C 214.691406 145.113281 214.710938 145.136719 214.734375 145.164062 C 215.78125 146.554688 216.035156 148.308594 215.585938 149.875 C 220.726562 151.21875 225.285156 154.585938 228.792969 158.488281 C 231.675781 161.699219 234.707031 165.933594 234.96875 170.414062 C 237.566406 171.496094 239.988281 172.980469 242.25 174.726562 C 243.273438 173.558594 244.738281 173.171875 246.191406 173.394531 C 244.167969 165.007812 240.316406 157.019531 234.699219 150.136719 C 232.722656 147.75 230.585938 145.503906 228.277344 143.4375 C 223.726562 139.367188 218.597656 136.117188 213.132812 133.710938 C 212.574219 134.027344 212.027344 134.378906 211.492188 134.78125 C 209.683594 136.132812 208.003906 137.667969 206.414062 139.269531 C 202.496094 143.210938 199.113281 147.695312 196.5 152.605469 " fill-opacity="1" fill-rule="nonzero"/><path fill="#000000" d="M 225.058594 223.953125 C 225.589844 228.03125 224.878906 231.902344 223.128906 235.34375 C 225.480469 233.679688 227.707031 231.84375 229.789062 229.855469 C 229.78125 229.527344 229.914062 229.183594 230.246094 228.890625 C 231.832031 227.480469 231.933594 224.539062 231.980469 222.582031 C 232 221.621094 232.042969 220.109375 231.839844 218.804688 C 229.707031 220.691406 227.4375 222.417969 225.058594 223.953125 " fill-opacity="1" fill-rule="nonzero"/><path fill="#000000" d="M 203.148438 227.0625 C 205.847656 228.085938 209.238281 227.621094 212.046875 226.878906 C 217.507812 225.4375 222.609375 222.609375 227.117188 219.074219 C 227.15625 218.828125 227.261719 218.585938 227.453125 218.355469 C 231.144531 213.976562 232.332031 207.789062 230.796875 202.296875 C 229.714844 198.40625 226.890625 194.316406 222.472656 194.144531 C 220.382812 194.0625 218.417969 194.097656 216.351562 193.628906 C 214.007812 193.101562 211.746094 192.222656 209.59375 191.167969 C 202.535156 187.714844 196.128906 181.925781 192.410156 174.847656 C 193.34375 179.363281 195.421875 183.582031 198.371094 187.226562 C 202.71875 192.601562 205.925781 198.558594 206.886719 205.484375 C 207.734375 211.585938 206.882812 217.84375 204.667969 223.582031 C 204.214844 224.753906 203.707031 225.917969 203.148438 227.0625 " fill-opacity="1" fill-rule="nonzero"/><path fill="#000000" d="M 243.980469 203.691406 C 243.117188 205.261719 242.175781 206.789062 241.160156 208.273438 C 241.953125 209.414062 242.347656 210.78125 242.46875 212.214844 C 243.203125 210.625 243.859375 209.011719 244.445312 207.378906 C 244.359375 207.148438 244.335938 206.882812 244.394531 206.589844 C 244.605469 205.550781 244.550781 204.46875 243.980469 203.691406 " fill-opacity="1" fill-rule="nonzero"/><g clip-path="url(#6242c8655c)"><path fill="#000000" d="M 246.128906 201.796875 C 246.542969 200.132812 246.878906 198.453125 247.144531 196.765625 C 246.613281 198.207031 246.011719 199.628906 245.347656 201.019531 C 245.648438 201.25 245.90625 201.511719 246.128906 201.796875 " fill-opacity="1" fill-rule="nonzero"/></g><g clip-path="url(#8682a335d3)"><path fill="#000000" d="M 244.757812 176.292969 C 244.664062 176.347656 244.558594 176.4375 244.445312 176.550781 C 245.433594 177.421875 246.386719 178.339844 247.308594 179.289062 C 247.183594 178.386719 247.039062 177.492188 246.875 176.59375 C 246.207031 176.171875 245.472656 175.867188 244.757812 176.292969 " fill-opacity="1" fill-rule="nonzero"/></g><path fill="#000000" d="M 208.800781 146.457031 C 207.722656 147.359375 207.617188 148.984375 208.507812 150.046875 C 209.445312 151.160156 211.175781 151.238281 212.21875 150.230469 C 213.234375 149.246094 213.144531 147.890625 212.4375 146.804688 C 211.457031 145.773438 209.960938 145.480469 208.800781 146.457031 " fill-opacity="1" fill-rule="nonzero"/><path fill="#000000" d="M 229.09375 139.042969 C 233.332031 140.238281 237.9375 140.65625 242.046875 138.867188 C 242.28125 138.761719 242.515625 138.652344 242.742188 138.535156 C 241.09375 138.507812 239.441406 138.308594 237.863281 138.027344 C 235.003906 138.929688 232.042969 139.222656 229.09375 139.042969 " fill-opacity="1" fill-rule="nonzero"/><g clip-path="url(#5676ee91d2)"><path fill="#000000" d="M 220.832031 133.769531 C 223.175781 133.90625 225.535156 133.832031 227.871094 133.613281 C 232.777344 133.15625 238.058594 132.15625 242.273438 129.460938 C 243.042969 128.96875 243.753906 130.195312 242.988281 130.683594 C 238.554688 133.515625 233.03125 134.550781 227.871094 135.027344 C 226.589844 135.148438 225.210938 135.265625 223.804688 135.316406 C 226.328125 136 228.917969 136.371094 231.554688 136.269531 C 236.152344 136.09375 240.632812 134.375 244.175781 131.4375 C 245.070312 130.695312 245.90625 129.886719 246.683594 129.023438 C 244.167969 128.886719 241.640625 128.871094 239.128906 128.90625 C 232.164062 129.011719 225.097656 129.652344 218.390625 131.621094 C 217.738281 131.8125 217.097656 132.011719 216.472656 132.230469 C 217.386719 132.679688 218.289062 133.152344 219.179688 133.644531 C 219.738281 133.703125 220.292969 133.738281 220.832031 133.769531 " fill-opacity="1" fill-rule="nonzero"/></g><g clip-path="url(#58a1ee6a10)"><path fill="#000000" d="M 178.179688 173.816406 C 180.398438 179.523438 184.082031 184.117188 187.792969 188.902344 C 191.246094 193.359375 194.113281 198.257812 196.027344 203.570312 C 199.097656 212.09375 199.324219 221.632812 195.882812 230.082031 C 194.597656 233.246094 192.859375 236.1875 190.757812 238.835938 C 197.671875 232.902344 202.503906 224.171875 203.964844 215.5 C 205.023438 209.203125 204.148438 202.605469 201.367188 196.847656 C 199.757812 193.515625 197.496094 190.785156 195.292969 187.855469 C 193.28125 185.179688 191.671875 182.210938 190.582031 179.042969 C 186.601562 167.433594 190.855469 155 197.640625 145.367188 C 200.609375 141.148438 204.082031 137.222656 208.054688 133.917969 C 208.675781 133.398438 209.296875 132.894531 209.941406 132.414062 C 203.980469 130.199219 197.6875 128.949219 191.347656 128.703125 C 191.316406 128.738281 191.285156 128.769531 191.25 128.800781 C 185.597656 133.972656 180.925781 140.507812 178.210938 147.679688 C 174.996094 156.179688 174.875 165.320312 178.179688 173.816406 " fill-opacity="1" fill-rule="nonzero"/></g><g clip-path="url(#d74cb13441)"><path fill="#000000" d="M 159.714844 179.246094 C 162.757812 183.914062 166.890625 187.480469 171.382812 190.710938 C 175.8125 193.902344 179.820312 197.621094 183.085938 201.996094 C 188.351562 209.050781 191.253906 217.871094 190.3125 226.679688 C 189.8125 231.375 188.316406 235.898438 185.972656 239.945312 C 190.25 235.707031 193.332031 230.328125 194.734375 224.390625 C 196.988281 214.839844 194.542969 204.960938 189.644531 196.625 C 186.507812 191.289062 182.101562 186.894531 178.90625 181.605469 C 176.289062 177.265625 174.332031 172.472656 173.449219 167.476562 C 170.917969 153.167969 177.28125 138.804688 187.300781 128.683594 C 178.789062 128.925781 170.304688 130.988281 162.542969 134.949219 C 158.664062 141.09375 155.9375 148.09375 154.863281 155.277344 C 153.621094 163.601562 155.078125 172.136719 159.714844 179.246094 " fill-opacity="1" fill-rule="nonzero"/></g><path fill="#000000" d="M 187.632812 222.023438 C 187.238281 212.664062 182.351562 204.242188 175.664062 197.875 C 171.40625 193.820312 166.234375 190.90625 162.117188 186.691406 C 158.8125 183.308594 156.117188 179.375 154.296875 175.011719 C 149.289062 163.003906 151.753906 149.121094 157.675781 137.742188 C 138.496094 150.035156 127.671875 172.957031 130.996094 195.753906 C 134.566406 220.21875 153.625 240.261719 177.878906 245.042969 C 178.050781 245.074219 178.21875 245.105469 178.390625 245.136719 C 184.585938 239.105469 187.996094 230.652344 187.632812 222.023438 " fill-opacity="1" fill-rule="nonzero"/><g clip-path="url(#4a9e1bee36)"><path fill="#000000" d="M 208.4375 230.488281 C 206.160156 230.65625 203.914062 230.414062 201.828125 229.566406 C 197.902344 236.476562 192.074219 242.503906 184.980469 245.988281 C 189.554688 246.3125 194.164062 246.109375 198.691406 245.375 C 198.742188 245.351562 198.796875 245.328125 198.851562 245.308594 C 201.75 244.296875 204.085938 241.640625 205.707031 239.136719 C 207.367188 236.566406 208.601562 233.578125 208.4375 230.488281 " fill-opacity="1" fill-rule="nonzero"/></g><path fill="#000000" d="M 211.234375 230.085938 C 211.605469 233.898438 210.019531 237.785156 207.933594 240.898438 C 207.257812 241.902344 206.5 242.886719 205.664062 243.804688 C 207.96875 243.136719 210.230469 242.328125 212.433594 241.375 C 213.808594 240.777344 215.160156 240.128906 216.484375 239.433594 C 220.398438 235.78125 222.804688 230.921875 222.414062 225.5625 C 219.191406 227.398438 215.242188 229.253906 211.234375 230.085938 " fill-opacity="1" fill-rule="nonzero"/><path fill="#000000" d="M 239.292969 210.839844 C 237.71875 212.878906 236.003906 214.816406 234.167969 216.632812 C 234.839844 218.503906 234.851562 220.8125 234.808594 222.582031 C 234.796875 223.203125 234.765625 223.871094 234.703125 224.558594 C 236.230469 222.699219 237.640625 220.746094 238.929688 218.710938 C 238.789062 218.4375 238.753906 218.105469 238.878906 217.71875 C 239.550781 215.660156 240.066406 212.980469 239.292969 210.839844 " fill-opacity="1" fill-rule="nonzero"/></svg>